<svg version="1.1" id="b3e65ad4-d009-4aae-bc36-e8415ee2152d"
	 xmlns="http://www.w3.org/2000/svg" xmlns:xlink="http://www.w3.org/1999/xlink" x="0px" y="0px" viewBox="0 0 148 64"
	 style="enable-background:new 0 0 148 64;" xml:space="preserve">
<style type="text/css">
	.st0{fill:#E42229;}
</style>
<g>
	<title>Medialab_logo_RVB</title>
	<g>
		<path class="st0" d="M18.1,32c0,0,1.9,1.8,4.3,1.8c1.3,0,2.5-0.7,2.5-2.1c0-3.1-8.1-2.5-8.1-7.8c0-2.9,2.5-5,5.8-5
			c3.4,0,5.1,1.8,5.1,1.8l-1.4,2.5c0,0-1.6-1.5-3.8-1.5c-1.5,0-2.6,0.8-2.6,2.1c0,3.1,8.1,2.3,8.1,7.8c0,2.7-2.1,5-5.7,5
			c-3.8,0-5.9-2.4-5.9-2.4L18.1,32z"/>
		<path class="st0" d="M35.2,25c2.9,0,4.3,1.7,4.3,1.7l-1.2,1.9c0,0-1.2-1.2-2.9-1.2c-2.1,0-3.4,1.6-3.4,3.5c0,1.9,1.4,3.5,3.5,3.5
			c1.9,0,3.3-1.4,3.3-1.4l1.1,2c0,0-1.6,1.8-4.6,1.8c-3.7,0-6.1-2.6-6.1-5.8C29.2,27.6,31.5,25,35.2,25"/>
		<path class="st0" d="M41.5,20.8h2.8v2.5h-2.8V20.8z M41.5,25.2h2.8v11.1h-2.8V25.2z"/>
		<path class="st0" d="M51.7,25c3.2,0,4.9,2.3,4.9,5.3c0,0.3-0.1,1.1-0.1,1.1h-7.7c0.2,1.9,1.7,3,3.3,3c1.8,0,3.2-1.2,3.2-1.2l1.1,2
			c0,0-1.7,1.6-4.5,1.6c-3.7,0-6-2.7-6-5.8C46.1,27.4,48.4,25,51.7,25 M53.9,29.4c0-1.5-1-2.3-2.2-2.3c-1.4,0-2.4,0.9-2.7,2.3H53.9z
			"/>
		<path class="st0" d="M58.5,25.2h2.7v1.3c0,0.4,0,0.8,0,0.8h0c0.5-0.9,1.7-2.3,4-2.3c2.5,0,3.9,1.3,3.9,4.2v7.2h-2.8v-6.6
			c0-1.4-0.4-2.3-1.8-2.3c-1.5,0-2.6,0.9-3,2.3c-0.2,0.5-0.2,1-0.2,1.5v5.1h-2.8V25.2z"/>
		<path class="st0" d="M76.7,25c2.9,0,4.3,1.7,4.3,1.7l-1.2,1.9c0,0-1.2-1.2-2.9-1.2c-2.1,0-3.4,1.6-3.4,3.5c0,1.9,1.4,3.5,3.5,3.5
			c1.9,0,3.3-1.4,3.3-1.4l1.1,2c0,0-1.6,1.8-4.6,1.8c-3.7,0-6.1-2.6-6.1-5.8C70.7,27.6,73,25,76.7,25"/>
		<path class="st0" d="M87.8,25c3.2,0,4.9,2.3,4.9,5.3c0,0.3-0.1,1.1-0.1,1.1H85c0.2,1.9,1.7,3,3.3,3c1.8,0,3.2-1.2,3.2-1.2l1.1,2
			c0,0-1.7,1.6-4.5,1.6c-3.7,0-6-2.7-6-5.8C82.2,27.4,84.5,25,87.8,25 M90,29.4c0-1.5-1-2.3-2.2-2.3c-1.4,0-2.4,0.9-2.7,2.3H90z"/>
		<path class="st0" d="M95.4,33c0,0,1.2,1.2,3,1.2c0.8,0,1.5-0.4,1.5-1c0-1.7-5.4-1.4-5.4-5c0-2.1,1.9-3.3,4.3-3.3
			c2.5,0,3.7,1.3,3.7,1.3l-1,2.1c0,0-1-1-2.7-1c-0.7,0-1.4,0.3-1.4,1c0,1.6,5.4,1.4,5.4,5c0,1.9-1.6,3.3-4.3,3.3
			c-2.8,0-4.3-1.6-4.3-1.6L95.4,33z"/>
		<path class="st0" d="M105.1,19.2h6.6c3.2,0,5.5,2.3,5.5,5.6c0,3.3-2.3,5.7-5.5,5.7h-3.5v5.9h-3.1V19.2z M111.2,27.7
			c1.8,0,2.9-1.2,2.9-3c0-1.8-1.1-2.9-2.8-2.9h-3v5.9H111.2z"/>
		<path class="st0" d="M123.7,25c3.4,0,6.1,2.4,6.1,5.8c0,3.4-2.7,5.8-6.1,5.8c-3.4,0-6.1-2.4-6.1-5.8C117.6,27.4,120.3,25,123.7,25
			 M123.7,34.3c1.8,0,3.3-1.4,3.3-3.5c0-2.1-1.5-3.5-3.3-3.5c-1.8,0-3.3,1.4-3.3,3.5C120.4,32.9,121.9,34.3,123.7,34.3"/>
		<path class="st0" d="M16.9,41.9H18l1.2,3c0.1,0.4,0.3,0.9,0.3,0.9h0c0,0,0.2-0.5,0.3-0.9l1.2-3h1.2l0.5,6h-1.1l-0.3-3.3
			c0-0.4,0-0.9,0-0.9h0c0,0-0.2,0.6-0.3,0.9l-1,2.3h-1l-1-2.3c-0.1-0.3-0.3-0.9-0.3-0.9h0c0,0,0,0.5,0,0.9l-0.3,3.3h-1.1L16.9,41.9z
			"/>
		<path class="st0" d="M24,41.9h3.6v0.9H25v1.6h2v0.9h-2V47h2.6v0.9H24V41.9z M26,40.4h1.1l-0.9,1.1h-0.9L26,40.4z"/>
		<path class="st0" d="M28.8,41.9h2c1.8,0,3,1.1,3,3s-1.2,3-3,3h-2V41.9z M30.8,47c1.2,0,2-0.7,2-2.1c0-1.3-0.8-2-2-2h-0.9V47H30.8z
			"/>
		<rect x="35" y="41.9" class="st0" width="1.1" height="6"/>
		<path class="st0" d="M40.6,46.4h-2.1L38,47.9h-1.1l2.1-6h1.1l2.1,6h-1.1L40.6,46.4z M39.5,43c0,0-0.1,0.6-0.3,0.9l-0.5,1.6h1.6
			l-0.5-1.6C39.7,43.6,39.5,43,39.5,43L39.5,43z"/>
		<polygon class="st0" points="43,41.9 44,41.9 44,47 46.6,47 46.6,47.9 43,47.9 		"/>
		<path class="st0" d="M50.6,46.4h-2.1l-0.5,1.5h-1.1l2.1-6h1.1l2.1,6h-1.1L50.6,46.4z M49.6,43c0,0-0.1,0.6-0.3,0.9l-0.5,1.6h1.6
			l-0.5-1.6C49.7,43.6,49.6,43,49.6,43L49.6,43z"/>
		<path class="st0" d="M53,41.9h2.1c1.1,0,1.8,0.6,1.8,1.5c0,0.6-0.3,1-0.7,1.3v0c0.7,0.2,1,0.8,1,1.4c0,1.2-1,1.7-2.1,1.7H53V41.9z
			 M55.2,44.4c0.5,0,0.7-0.3,0.7-0.8c0-0.4-0.3-0.7-0.8-0.7h-1v1.5H55.2z M55.3,47c0.6,0,0.9-0.4,0.9-0.9c0-0.5-0.3-0.9-0.9-0.9
			h-1.2V47H55.3z"/>
	</g>
</g>
</svg>
