<?xml version="1.0" encoding="utf-8"?>
<!-- Generator: Adobe Illustrator 15.0.0, SVG Export Plug-In . SVG Version: 6.00 Build 0)  -->
<!DOCTYPE svg PUBLIC "-//W3C//DTD SVG 1.1//EN" "http://www.w3.org/Graphics/SVG/1.1/DTD/svg11.dtd">
<svg version="1.1" xmlns="http://www.w3.org/2000/svg" xmlns:xlink="http://www.w3.org/1999/xlink" x="0px" y="0px" width="2000px"
	 height="2000px" viewBox="0 0 2000 2000" enable-background="new 0 0 2000 2000" xml:space="preserve">
<g id="Calque_1">
</g>
<g id="b3e65ad4-d009-4aae-bc36-e8415ee2152d">
	<g>
		<title>Medialab_logo_RVB</title>
		<g>
			<path d="M105.965,982.717c0,0,30.356,28.759,68.701,28.759c20.77,0,39.943-11.184,39.943-33.551
				c0-49.529-129.413-39.942-129.413-124.621c0-46.333,39.942-79.884,92.666-79.884c54.322,0,81.483,28.758,81.483,28.758
				l-22.368,39.942c0,0-25.563-23.965-60.712-23.965c-23.965,0-41.54,12.782-41.54,33.552c0,49.528,129.413,36.747,129.413,124.62
				c0,43.138-33.551,79.885-91.068,79.885c-60.712,0-94.264-38.344-94.264-38.344L105.965,982.717z"/>
			<path d="M379.171,870.878c46.333,0,68.7,27.161,68.7,27.161l-19.172,30.356c0,0-19.172-19.172-46.333-19.172
				c-33.551,0-54.321,25.563-54.321,55.919s22.368,55.919,55.919,55.919c30.356,0,52.724-22.368,52.724-22.368l17.575,31.954
				c0,0-25.563,28.759-73.494,28.759c-59.115,0-97.46-41.539-97.46-92.666C283.309,912.418,320.057,870.878,379.171,870.878"/>
			<path d="M479.826,803.775h44.736v39.942h-44.736V803.775z M479.826,874.074h44.736v177.344h-44.736V874.074z"/>
			<path d="M642.791,870.878c51.126,0,78.287,36.748,78.287,84.677c0,4.793-1.598,17.575-1.598,17.575H596.458
				c3.195,30.356,27.161,47.931,52.723,47.931c28.759,0,51.126-19.172,51.126-19.172l17.575,31.953c0,0-27.162,25.563-71.896,25.563
				c-59.115,0-95.862-43.138-95.862-92.666C553.32,909.223,590.066,870.878,642.791,870.878 M677.94,941.177
				c0-23.965-15.977-36.747-35.149-36.747c-22.369,0-38.346,14.38-43.138,36.747H677.94z"/>
			<path d="M751.434,874.074h43.138v20.77c0,6.391,0,12.782,0,12.782l0,0c7.989-14.38,27.161-36.748,63.908-36.748
				c39.942,0,62.31,20.771,62.31,67.104v115.034h-44.735V947.567c0-22.367-6.392-36.747-28.759-36.747
				c-23.966,0-41.541,14.379-47.931,36.747c-3.195,7.988-3.195,15.977-3.195,23.965v81.483h-44.736V874.074z"/>
			<path d="M1042.214,870.878c46.333,0,68.701,27.161,68.701,27.161l-19.173,30.356c0,0-19.172-19.172-46.333-19.172
				c-33.551,0-54.321,25.563-54.321,55.919s22.367,55.919,55.92,55.919c30.355,0,52.723-22.368,52.723-22.368l17.575,31.954
				c0,0-25.563,28.759-73.493,28.759c-59.115,0-97.459-41.539-97.459-92.666C946.353,912.418,983.1,870.878,1042.214,870.878"/>
			<path d="M1219.559,870.878c51.126,0,78.287,36.748,78.287,84.677c0,4.793-1.599,17.575-1.599,17.575h-121.425
				c3.195,30.356,27.161,47.931,52.725,47.931c28.759,0,51.126-19.172,51.126-19.172l17.574,31.953c0,0-27.16,25.563-71.896,25.563
				c-59.114,0-95.862-43.138-95.862-92.666C1130.087,909.223,1166.834,870.878,1219.559,870.878 M1254.708,941.177
				c0-23.965-15.978-36.747-35.149-36.747c-22.367,0-38.345,14.38-43.138,36.747H1254.708z"/>
			<path d="M1340.983,998.693c0,0,19.172,19.174,47.931,19.174c12.781,0,23.966-6.392,23.966-15.978
				c0-27.162-86.275-22.368-86.275-79.885c0-33.552,30.355-52.725,68.7-52.725c39.942,0,59.114,20.771,59.114,20.771l-15.977,33.552
				c0,0-15.978-15.977-43.138-15.977c-11.184,0-22.367,4.792-22.367,15.977c0,25.563,86.275,22.368,86.275,79.885
				c0,30.355-25.562,52.724-68.701,52.724c-44.735,0-68.701-25.563-68.701-25.563L1340.983,998.693z"/>
			<path d="M1495.96,778.212h105.446c51.127,0,87.874,36.747,87.874,89.471c0,52.724-36.747,91.069-87.874,91.069h-55.918v94.264
				h-49.528V778.212z M1593.419,914.016c28.758,0,46.333-19.172,46.333-47.931c0-28.758-17.575-46.333-44.736-46.333h-47.931v94.264
				H1593.419z"/>
			<path d="M1793.131,870.878c54.321,0,97.459,38.345,97.459,92.666c0,54.323-43.138,92.667-97.459,92.667
				s-97.46-38.344-97.46-92.667C1695.671,909.223,1738.81,870.878,1793.131,870.878 M1793.131,1019.464
				c28.758,0,52.723-22.367,52.723-55.919c0-33.551-23.965-55.918-52.723-55.918c-28.759,0-52.725,22.367-52.725,55.918
				C1740.406,997.097,1764.372,1019.464,1793.131,1019.464"/>
			<path d="M86.793,1140.889h17.575l19.172,47.931c1.598,6.391,4.793,14.379,4.793,14.379l0,0c0,0,3.195-7.988,4.792-14.379
				l19.172-47.931h19.173l7.988,95.862h-17.575l-4.792-52.725c0-6.391,0-14.379,0-14.379l0,0c0,0-3.196,9.586-4.793,14.379
				l-15.977,36.747h-15.977l-15.977-36.747c-1.598-4.793-4.793-14.379-4.793-14.379l0,0c0,0,0,7.988,0,14.379l-4.793,52.725H77.207
				L86.793,1140.889z"/>
			<path d="M200.229,1140.889h57.517v14.38h-41.54v25.562h31.954v14.379h-31.954v27.161h41.54v14.38h-57.517V1140.889z
				 M232.184,1116.923h17.574l-14.379,17.575h-14.379L232.184,1116.923z"/>
			<path d="M276.919,1140.889h31.954c28.758,0,47.931,17.575,47.931,47.931c0,30.356-19.173,47.932-47.931,47.932h-31.954V1140.889
				L276.919,1140.889z M308.873,1222.371c19.172,0,31.954-11.184,31.954-33.552c0-20.771-12.782-31.954-31.954-31.954h-14.379
				v65.506H308.873z"/>
			<rect x="375.976" y="1140.889" width="17.574" height="95.862"/>
			<path d="M465.447,1212.785h-33.552l-7.988,23.966h-17.574l33.551-95.862h17.575l33.551,95.862h-17.574L465.447,1212.785z
				 M447.872,1158.464c0,0-1.597,9.585-4.792,14.379l-7.988,25.563h25.562l-7.988-25.563
				C451.068,1168.049,447.872,1158.464,447.872,1158.464L447.872,1158.464z"/>
			<polygon points="503.791,1140.889 519.768,1140.889 519.768,1222.371 561.309,1222.371 561.309,1236.751 503.791,1236.751 			"/>
			<path d="M625.216,1212.785h-33.551l-7.988,23.966h-17.575l33.552-95.862h17.574l33.552,95.862h-17.575L625.216,1212.785z
				 M609.239,1158.464c0,0-1.597,9.585-4.793,14.379l-7.988,25.563h25.563l-7.988-25.563
				C610.837,1168.049,609.239,1158.464,609.239,1158.464L609.239,1158.464z"/>
			<path d="M663.561,1140.889h33.551c17.574,0,28.759,9.586,28.759,23.965c0,9.587-4.793,15.978-11.185,20.771l0,0
				c11.185,3.194,15.977,12.781,15.977,22.367c0,19.172-15.977,27.16-33.551,27.16h-33.551V1140.889z M698.709,1180.831
				c7.988,0,11.185-4.793,11.185-12.782c0-6.39-4.793-11.184-12.782-11.184h-15.977v23.966H698.709z M700.308,1222.371
				c9.586,0,14.379-6.391,14.379-14.379s-4.792-14.379-14.379-14.379h-19.172v28.758H700.308z"/>
		</g>
	</g>
</g>
</svg>
