<?xml version="1.0" encoding="utf-8"?>
<!-- Generator: Adobe Illustrator 22.1.0, SVG Export Plug-In . SVG Version: 6.00 Build 0)  -->
<svg version="1.1" id="d5df662d-022b-41c8-8da9-23549df1e973"
	 xmlns="http://www.w3.org/2000/svg" xmlns:xlink="http://www.w3.org/1999/xlink" x="0px" y="0px" viewBox="0 0 100 100"
	 style="enable-background:new 0 0 100 100;" xml:space="preserve">
<title>Medialab_logo_RVB</title>
<g>
	<g>
		<g>
			<path d="M50,8.3C27,8.3,8.3,27,8.3,50C8.3,73,27,91.7,50,91.7C73,91.7,91.7,73,91.7,50C91.7,27,73,8.3,50,8.3 M50,88.7
				c-21.3,0-38.7-17.4-38.7-38.7c0-21.3,17.4-38.7,38.7-38.7S88.7,28.7,88.7,50C88.7,71.3,71.3,88.7,50,88.7"/>
			<path d="M34.9,56l-3.2,4.3c0,0,1.6,2.6,1.6,2.6c0,0,0,0,0,0l-2.4,5.7l1.4,3.5l7.8,0V71l-4.6-1l-0.6-1.5l3.3-7.5L34.9,56z"/>
		</g>
		<polygon points="20.9,33.9 20.9,33.9 19.1,40.4 21,40.4 20.9,51.3 22.3,51.3 23.6,56.1 26.4,49.2 26.3,40.1 		"/>
		<g>
			<path d="M65.4,56l-3.2,5.1l3.3,7.5L64.9,70l-3.1,0.2v1.8H68l1.4-3.5L67,62.9c0,0,0,0,0,0c0,0,1.6-2.6,1.6-2.6L65.4,56z"/>
		</g>
		<polygon points="79.9,37.6 72.9,45.4 76.7,56.6 77.7,53.2 75.2,45.9 78.3,42.4 82.2,48.2 82.2,43.3 79.9,37.6 		"/>
		<g>
			<path d="M67.8,28.4c0,0-0.6,2.6-0.6,2.6h-2.6l-0.4,1.6l2.3-0.1l-6.4,1.1l0.8,3.4h3.4l1,3.9L63,47.6l-1.7,1.6l-0.9-8.4l-8.7,0
				L50,42.4l-1.7-1.6l-8.7,0l-0.9,8.2l-1.5-1.4l-2.4-6.8l0-5.1h6.1l0.9-1.8l-5.3-1.8h-1.7l0.8-0.8l-0.9-0.9h-3.3
				c0,0-1.7-1.6-1.8-1.7c0,0.1,0,1.7,0,1.7l-1.7-1.7v12.1l1.7-1.7l-1.8,3.4l1.8,0l-1.7,1.7v5.2l-3.5,8.9h0l1.6,4.6L21,66.9l1.8,5.2
				h6.8V71l-3.4-0.7l-0.8-2.4l5.7-4l-1.4-4l6.3-8.5l-2.2-2.3l4.6,2.8l-0.5,4.2c0,0,9.5,0,9.5,0.1c0,0,2.7,2.5,2.7,2.5l2.4-2.4l9.5,0
				l-0.5-4.3l4.8-2.9l-2.2,2.3l6.3,8.5l-1.4,4l5.7,4l-0.8,2.4l-1.9,0v1.8h5.3l1.8-5.2l-5.1-3.7l1.6-4.7h0l-4.7-13.6l3.1-3.5
				l-1.2-2.6l1.6,1.6l0.1-3.4l-1.7-1.6h1.7l-1.7-3.6h1.7l-2.6-2.6L67.8,28.4z M29.6,28.8L29.6,28.8C29.6,28.8,29.6,28.8,29.6,28.8
				C29.6,28.8,29.6,28.8,29.6,28.8"/>
		</g>
	</g>
</g>
</svg>
