<?xml version="1.0" encoding="utf-8"?>
<!-- Generator: Adobe Illustrator 15.0.0, SVG Export Plug-In . SVG Version: 6.00 Build 0)  -->
<!DOCTYPE svg PUBLIC "-//W3C//DTD SVG 1.1//EN" "http://www.w3.org/Graphics/SVG/1.1/DTD/svg11.dtd">
<svg version="1.1" xmlns="http://www.w3.org/2000/svg" xmlns:xlink="http://www.w3.org/1999/xlink" x="0px" y="0px" width="2000px"
	 height="1000px" viewBox="0 0 2000 1000" enable-background="new 0 0 2000 1000" xml:space="preserve">
<g id="Calque_1">
</g>
<g id="b3e65ad4-d009-4aae-bc36-e8415ee2152d">
	<g>
		<title>Medialab_logo_RVB</title>
		<g>
			<path d="M105.965,435.61c0,0,30.356,28.759,68.701,28.759c20.77,0,39.943-11.185,39.943-33.552
				c0-49.529-129.413-39.941-129.413-124.621c0-46.332,39.942-79.883,92.666-79.883c54.322,0,81.483,28.758,81.483,28.758
				l-22.368,39.941c0,0-25.563-23.965-60.712-23.965c-23.965,0-41.54,12.781-41.54,33.552c0,49.528,129.413,36.747,129.413,124.62
				c0,43.138-33.551,79.885-91.068,79.885c-60.712,0-94.264-38.344-94.264-38.344L105.965,435.61z"/>
			<path d="M379.171,323.772c46.333,0,68.7,27.16,68.7,27.16l-19.172,30.355c0,0-19.172-19.172-46.333-19.172
				c-33.551,0-54.321,25.564-54.321,55.92s22.368,55.919,55.919,55.919c30.356,0,52.724-22.368,52.724-22.368l17.575,31.954
				c0,0-25.563,28.759-73.494,28.759c-59.115,0-97.46-41.539-97.46-92.666C283.309,365.312,320.057,323.772,379.171,323.772"/>
			<path d="M479.826,256.669h44.736v39.942h-44.736V256.669z M479.826,326.968h44.736v177.344h-44.736V326.968z"/>
			<path d="M642.791,323.772c51.126,0,78.287,36.747,78.287,84.677c0,4.794-1.598,17.575-1.598,17.575H596.458
				c3.195,30.356,27.161,47.931,52.723,47.931c28.759,0,51.126-19.172,51.126-19.172l17.575,31.953c0,0-27.162,25.563-71.896,25.563
				c-59.115,0-95.862-43.138-95.862-92.666C553.32,362.116,590.066,323.772,642.791,323.772 M677.94,394.07
				c0-23.966-15.977-36.747-35.149-36.747c-22.369,0-38.346,14.38-43.138,36.747H677.94z"/>
			<path d="M751.434,326.968h43.138v20.77c0,6.391,0,12.782,0,12.782l0,0c7.989-14.38,27.161-36.747,63.908-36.747
				c39.942,0,62.31,20.77,62.31,67.104v115.033h-44.735V400.461c0-22.367-6.392-36.747-28.759-36.747
				c-23.966,0-41.541,14.38-47.931,36.747c-3.195,7.988-3.195,15.978-3.195,23.966v81.482h-44.736V326.968z"/>
			<path d="M1042.214,323.772c46.333,0,68.701,27.16,68.701,27.16l-19.173,30.355c0,0-19.172-19.172-46.333-19.172
				c-33.551,0-54.321,25.564-54.321,55.92s22.367,55.919,55.92,55.919c30.355,0,52.723-22.368,52.723-22.368l17.575,31.954
				c0,0-25.563,28.759-73.493,28.759c-59.115,0-97.459-41.539-97.459-92.666C946.353,365.312,983.1,323.772,1042.214,323.772"/>
			<path d="M1219.559,323.772c51.126,0,78.287,36.747,78.287,84.677c0,4.794-1.599,17.575-1.599,17.575h-121.425
				c3.195,30.356,27.161,47.931,52.725,47.931c28.759,0,51.126-19.172,51.126-19.172l17.574,31.953c0,0-27.16,25.563-71.896,25.563
				c-59.114,0-95.862-43.138-95.862-92.666C1130.087,362.116,1166.834,323.772,1219.559,323.772 M1254.708,394.07
				c0-23.966-15.978-36.747-35.149-36.747c-22.367,0-38.345,14.38-43.138,36.747H1254.708z"/>
			<path d="M1340.983,451.587c0,0,19.172,19.174,47.931,19.174c12.781,0,23.966-6.392,23.966-15.978
				c0-27.161-86.275-22.368-86.275-79.885c0-33.552,30.355-52.725,68.7-52.725c39.942,0,59.114,20.771,59.114,20.771l-15.977,33.552
				c0,0-15.978-15.977-43.138-15.977c-11.184,0-22.367,4.792-22.367,15.977c0,25.563,86.275,22.368,86.275,79.885
				c0,30.355-25.562,52.724-68.701,52.724c-44.735,0-68.701-25.563-68.701-25.563L1340.983,451.587z"/>
			<path d="M1495.96,231.106h105.446c51.127,0,87.874,36.746,87.874,89.471c0,52.723-36.747,91.068-87.874,91.068h-55.918v94.264
				h-49.528V231.106z M1593.419,366.909c28.758,0,46.333-19.172,46.333-47.931c0-28.758-17.575-46.333-44.736-46.333h-47.931v94.264
				H1593.419z"/>
			<path d="M1793.131,323.772c54.321,0,97.459,38.344,97.459,92.666s-43.138,92.666-97.459,92.666s-97.46-38.344-97.46-92.666
				S1738.81,323.772,1793.131,323.772 M1793.131,472.357c28.758,0,52.723-22.367,52.723-55.919s-23.965-55.919-52.723-55.919
				c-28.759,0-52.725,22.367-52.725,55.919S1764.372,472.357,1793.131,472.357"/>
			<path d="M86.793,593.782h17.575l19.172,47.931c1.598,6.391,4.793,14.379,4.793,14.379l0,0c0,0,3.195-7.988,4.792-14.379
				l19.172-47.931h19.173l7.988,95.862h-17.575l-4.792-52.725c0-6.391,0-14.379,0-14.379l0,0c0,0-3.196,9.586-4.793,14.379
				l-15.977,36.747h-15.977l-15.977-36.747c-1.598-4.793-4.793-14.379-4.793-14.379l0,0c0,0,0,7.988,0,14.379l-4.793,52.725H77.207
				L86.793,593.782z"/>
			<path d="M200.229,593.782h57.517v14.38h-41.54v25.562h31.954v14.379h-31.954v27.161h41.54v14.38h-57.517V593.782z
				 M232.184,569.816h17.574l-14.379,17.575h-14.379L232.184,569.816z"/>
			<path d="M276.919,593.782h31.954c28.758,0,47.931,17.575,47.931,47.931c0,30.356-19.173,47.932-47.931,47.932h-31.954V593.782
				L276.919,593.782z M308.873,675.265c19.172,0,31.954-11.184,31.954-33.552c0-20.771-12.782-31.954-31.954-31.954h-14.379v65.506
				H308.873z"/>
			<rect x="375.976" y="593.782" width="17.574" height="95.862"/>
			<path d="M465.447,665.679h-33.552l-7.988,23.966h-17.574l33.551-95.862h17.575l33.551,95.862h-17.574L465.447,665.679z
				 M447.872,611.357c0,0-1.597,9.585-4.792,14.379l-7.988,25.563h25.562l-7.988-25.563
				C451.068,620.942,447.872,611.357,447.872,611.357L447.872,611.357z"/>
			<polygon points="503.791,593.782 519.768,593.782 519.768,675.265 561.309,675.265 561.309,689.645 503.791,689.645 			"/>
			<path d="M625.216,665.679h-33.551l-7.988,23.966h-17.575l33.552-95.862h17.574l33.552,95.862h-17.575L625.216,665.679z
				 M609.239,611.357c0,0-1.597,9.585-4.793,14.379l-7.988,25.563h25.563l-7.988-25.563
				C610.837,620.942,609.239,611.357,609.239,611.357L609.239,611.357z"/>
			<path d="M663.561,593.782h33.551c17.574,0,28.759,9.586,28.759,23.965c0,9.587-4.793,15.978-11.185,20.771l0,0
				c11.185,3.194,15.977,12.781,15.977,22.367c0,19.172-15.977,27.16-33.551,27.16h-33.551V593.782z M698.709,633.725
				c7.988,0,11.185-4.793,11.185-12.782c0-6.39-4.793-11.184-12.782-11.184h-15.977v23.966H698.709z M700.308,675.265
				c9.586,0,14.379-6.391,14.379-14.379s-4.792-14.379-14.379-14.379h-19.172v28.758H700.308z"/>
		</g>
	</g>
</g>
</svg>
