<svg version="1.1" id="b3e65ad4-d009-4aae-bc36-e8415ee2152d"
	 xmlns="http://www.w3.org/2000/svg" xmlns:xlink="http://www.w3.org/1999/xlink" x="0px" y="0px" viewBox="0 0 118 29.8"
	 style="enable-background:new 0 0 118 29.8;" xml:space="preserve">
<g>
	<title>Medialab_logo_RVB</title>
	<g>
		<path d="M3.1,13.8c0,0,1.9,1.8,4.3,1.8c1.3,0,2.5-0.7,2.5-2.1c0-3.1-8.1-2.5-8.1-7.8c0-2.9,2.5-5,5.8-5c3.4,0,5.1,1.8,5.1,1.8
			L11.3,5c0,0-1.6-1.5-3.8-1.5C6,3.5,4.9,4.3,4.9,5.6c0,3.1,8.1,2.3,8.1,7.8c0,2.7-2.1,5-5.7,5c-3.8,0-5.9-2.4-5.9-2.4L3.1,13.8z"/>
		<path d="M20.2,6.8c2.9,0,4.3,1.7,4.3,1.7l-1.2,1.9c0,0-1.2-1.2-2.9-1.2c-2.1,0-3.4,1.6-3.4,3.5s1.4,3.5,3.5,3.5
			c1.9,0,3.3-1.4,3.3-1.4l1.1,2c0,0-1.6,1.8-4.6,1.8c-3.7,0-6.1-2.6-6.1-5.8C14.2,9.4,16.5,6.8,20.2,6.8"/>
		<path d="M26.5,2.6h2.8v2.5h-2.8V2.6z M26.5,7h2.8v11.1h-2.8V7z"/>
		<path d="M36.7,6.8c3.2,0,4.9,2.3,4.9,5.3c0,0.3-0.1,1.1-0.1,1.1h-7.7c0.2,1.9,1.7,3,3.3,3c1.8,0,3.2-1.2,3.2-1.2l1.1,2
			c0,0-1.7,1.6-4.5,1.6c-3.7,0-6-2.7-6-5.8C31.1,9.2,33.4,6.8,36.7,6.8 M38.9,11.2c0-1.5-1-2.3-2.2-2.3c-1.4,0-2.4,0.9-2.7,2.3H38.9
			z"/>
		<path d="M43.5,7h2.7v1.3c0,0.4,0,0.8,0,0.8l0,0c0.5-0.9,1.7-2.3,4-2.3c2.5,0,3.9,1.3,3.9,4.2v7.2h-2.8v-6.6c0-1.4-0.4-2.3-1.8-2.3
			c-1.5,0-2.6,0.9-3,2.3c-0.2,0.5-0.2,1-0.2,1.5v5.1h-2.8C43.5,18.2,43.5,7,43.5,7z"/>
		<path d="M61.7,6.8c2.9,0,4.3,1.7,4.3,1.7l-1.2,1.9c0,0-1.2-1.2-2.9-1.2c-2.1,0-3.4,1.6-3.4,3.5s1.4,3.5,3.5,3.5
			c1.9,0,3.3-1.4,3.3-1.4l1.1,2c0,0-1.6,1.8-4.6,1.8c-3.7,0-6.1-2.6-6.1-5.8C55.7,9.4,58,6.8,61.7,6.8"/>
		<path d="M72.8,6.8c3.2,0,4.9,2.3,4.9,5.3c0,0.3-0.1,1.1-0.1,1.1H70c0.2,1.9,1.7,3,3.3,3c1.8,0,3.2-1.2,3.2-1.2l1.1,2
			c0,0-1.7,1.6-4.5,1.6c-3.7,0-6-2.7-6-5.8C67.2,9.2,69.5,6.8,72.8,6.8 M75,11.2c0-1.5-1-2.3-2.2-2.3c-1.4,0-2.4,0.9-2.7,2.3H75z"/>
		<path d="M80.4,14.8c0,0,1.2,1.2,3,1.2c0.8,0,1.5-0.4,1.5-1c0-1.7-5.4-1.4-5.4-5c0-2.1,1.9-3.3,4.3-3.3c2.5,0,3.7,1.3,3.7,1.3
			l-1,2.1c0,0-1-1-2.7-1c-0.7,0-1.4,0.3-1.4,1c0,1.6,5.4,1.4,5.4,5c0,1.9-1.6,3.3-4.3,3.3c-2.8,0-4.3-1.6-4.3-1.6L80.4,14.8z"/>
		<path d="M90.1,1h6.6c3.2,0,5.5,2.3,5.5,5.6s-2.3,5.7-5.5,5.7h-3.5v5.9h-3.1V1z M96.2,9.5c1.8,0,2.9-1.2,2.9-3S98,3.6,96.3,3.6h-3
			v5.9H96.2z"/>
		<path d="M108.7,6.8c3.4,0,6.1,2.4,6.1,5.8s-2.7,5.8-6.1,5.8s-6.1-2.4-6.1-5.8C102.6,9.2,105.3,6.8,108.7,6.8 M108.7,16.1
			c1.8,0,3.3-1.4,3.3-3.5s-1.5-3.5-3.3-3.5s-3.3,1.4-3.3,3.5C105.4,14.7,106.9,16.1,108.7,16.1"/>
		<path d="M1.9,23.7H3l1.2,3c0.1,0.4,0.3,0.9,0.3,0.9l0,0c0,0,0.2-0.5,0.3-0.9l1.2-3h1.2l0.5,6H6.6l-0.3-3.3c0-0.4,0-0.9,0-0.9l0,0
			c0,0-0.2,0.6-0.3,0.9l-1,2.3H4l-1-2.3c-0.1-0.3-0.3-0.9-0.3-0.9l0,0c0,0,0,0.5,0,0.9l-0.3,3.3H1.3L1.9,23.7z"/>
		<path d="M9,23.7h3.6v0.9H10v1.6h2v0.9h-2v1.7h2.6v0.9H9V23.7z M11,22.2h1.1l-0.9,1.1h-0.9L11,22.2z"/>
		<path d="M13.8,23.7h2c1.8,0,3,1.1,3,3s-1.2,3-3,3h-2V23.7z M15.8,28.8c1.2,0,2-0.7,2-2.1c0-1.3-0.8-2-2-2h-0.9v4.1H15.8z"/>
		<rect x="20" y="23.7" width="1.1" height="6"/>
		<path d="M25.6,28.2h-2.1L23,29.7h-1.1l2.1-6h1.1l2.1,6h-1.1L25.6,28.2z M24.5,24.8c0,0-0.1,0.6-0.3,0.9l-0.5,1.6h1.6l-0.5-1.6
			C24.7,25.4,24.5,24.8,24.5,24.8L24.5,24.8z"/>
		<polygon points="28,23.7 29,23.7 29,28.8 31.6,28.8 31.6,29.7 28,29.7 		"/>
		<path d="M35.6,28.2h-2.1L33,29.7h-1.1l2.1-6h1.1l2.1,6h-1.1L35.6,28.2z M34.6,24.8c0,0-0.1,0.6-0.3,0.9l-0.5,1.6h1.6l-0.5-1.6
			C34.7,25.4,34.6,24.8,34.6,24.8L34.6,24.8z"/>
		<path d="M38,23.7h2.1c1.1,0,1.8,0.6,1.8,1.5c0,0.6-0.3,1-0.7,1.3l0,0c0.7,0.2,1,0.8,1,1.4c0,1.2-1,1.7-2.1,1.7H38V23.7z
			 M40.2,26.2c0.5,0,0.7-0.3,0.7-0.8c0-0.4-0.3-0.7-0.8-0.7h-1v1.5H40.2z M40.3,28.8c0.6,0,0.9-0.4,0.9-0.9S40.9,27,40.3,27h-1.2
			v1.8H40.3z"/>
	</g>
</g>
</svg>
