<svg version="1.1" id="Calque_1" xmlns="http://www.w3.org/2000/svg" xmlns:xlink="http://www.w3.org/1999/xlink" x="0px" y="0px"
	 viewBox="0 0 241.5 72.6" style="enable-background:new 0 0 241.5 72.6;" xml:space="preserve">
<g>
	<path d="M88.5,55.8c0-0.8-0.5-1.4-1.4-1.4h-2v2.9h2C88,57.3,88.5,56.7,88.5,55.8z"/>
	<path d="M87.4,58.9h-2.2v3.2h2.2c1.1,0,1.7-0.7,1.7-1.7C89,59.6,88.4,58.9,87.4,58.9z"/>
	<path d="M148.3,24.8c-2.6,0-4.5,1.7-5,4.4h9.2C152.3,26.3,150.5,24.8,148.3,24.8z"/>
	<path d="M76.7,54.6c0,0-0.2,1.1-0.5,1.7l-1,3h2.9l-1-3C76.9,55.7,76.7,54.6,76.7,54.6z"/>
	<path d="M41.4,54.5h-1.7v7.7h1.7c2.3,0,3.8-1.4,3.8-3.8C45.1,55.8,43.6,54.5,41.4,54.5z"/>
	<path d="M80.6,24.8c-2.6,0-4.5,1.7-5,4.4h9.2C84.6,26.3,82.8,24.8,80.6,24.8z"/>
	<path d="M57.8,54.6c0,0-0.2,1.1-0.5,1.7l-1,3h2.9l-1-3C58.1,55.7,57.8,54.6,57.8,54.6z"/>
	<path d="M0,0.7v71.8h241.5V0.7H0z M80.7,20.7c6,0,9.2,4.4,9.2,9.9c0,0.6-0.2,2-0.2,2H75.4c0.3,3.7,3.2,5.6,6.3,5.6
		c3.4,0,6-2.3,6-2.3l2,3.8c0,0-3.2,3-8.4,3c-6.9,0-11.3-5-11.3-11C70.1,25.3,74.4,20.7,80.7,20.7z M61.4,13.1h5.2v4.7h-5.2V13.1z
		 M61.4,21.3h5.2v20.9h-5.2V21.3z M49.7,20.7c5.5,0,8,3.1,8,3.1l-2.3,3.5c0,0-2.2-2.3-5.5-2.3c-3.8,0-6.4,2.9-6.4,6.5
		s2.6,6.5,6.5,6.5c3.5,0,6.2-2.6,6.2-2.6l2,3.7c0,0-3,3.4-8.6,3.4c-6.9,0-11.3-4.9-11.3-11C38.4,25.8,42.8,20.7,49.7,20.7z M24,63.8
		l-0.5-6.2c-0.1-0.8,0-1.7,0-1.7s-0.3,1.1-0.6,1.7l-1.9,4.4h-1.7l-1.8-4.4c-0.3-0.7-0.6-1.7-0.6-1.7s0,1,0,1.7l-0.5,6.2h-2.2l1-11.1
		h2.2l2.2,5.5c0.2,0.7,0.6,1.7,0.6,1.7s0.3-1,0.5-1.7l2.2-5.6h2.2L26,63.8H24z M35.5,63.8h-7c0,0.1,0-11.1,0-11.1h6.7v1.7h-4.7v2.9
		h3.8v1.7h-3.8v3h5V63.8z M31.3,51.9l1.1-2.2h2.1l-1.7,2.2H31.3z M25.4,42.8c-7.1,0-11.1-4.4-11.1-4.4l3.2-4.4c0,0,3.5,3.4,8,3.4
		c2.5,0,4.7-1.3,4.7-3.9c0-5.8-15.3-4.8-15.3-14.7c0.1-5.3,4.7-9.3,10.9-9.3c6.4,0,9.6,3.5,9.6,3.5L33,17.6c0,0-3.1-2.9-7.1-2.9
		c-2.7,0-4.9,1.6-4.9,3.8c0,5.8,15.2,4.4,15.2,14.7C36.1,38.4,32.2,42.8,25.4,42.8z M41.4,63.9h-3.8V52.7h3.8c3.5,0,5.7,2,5.7,5.6
		C47.2,61.8,44.9,63.9,41.4,63.9z M51.3,63.9h-2V52.7h2V63.9z M60.5,63.9L59.7,61h-3.9l-1,2.9h-2.1l3.9-11.2h2.1l3.9,11.2H60.5z
		 M71.1,63.9h-6.9V52.7h2v9.5h4.9V63.9z M79.5,63.9L78.6,61h-3.9l-1,2.9h-2.1l3.9-11.2h2.1l3.9,11.2H79.5z M87.2,63.8h-4.1V52.7h4
		c2,0,3.5,1.1,3.5,2.9c0,1.1-0.5,2-1.4,2.4c1.2,0.4,1.8,1.5,1.8,2.6C91,62.8,89.2,63.8,87.2,63.8z M113.2,42.2H108V29.8
		c0-2.6-0.7-4.3-3.3-4.3c-2.8,0-4.8,1.7-5.6,4.3c-0.3,0.8-0.4,1.8-0.4,2.8v9.6h-5.2l-0.1-20.9h5v2.4c0,0.8-0.1,1.4-0.1,1.4h0.1
		c0.9-1.7,3.2-4.4,7.4-4.4c4.7,0,7.3,2.4,7.3,8V42.2z M127.6,42.5c-6.9,0-11.3-4.9-11.3-11c0-5.8,4.4-10.8,11.4-10.8
		c5.5,0,8,3.1,8,3.1l-2.3,3.5c0,0-2.2-2.3-5.5-2.3c-3.8,0-6.4,2.9-6.4,6.5s2.6,6.5,6.5,6.5c3.5,0,6.2-2.6,6.2-2.6l2,3.7
		C136.2,39.2,133.2,42.5,127.6,42.5z M157.5,32.7h-14.4c0.3,3.7,3.2,5.6,6.3,5.6c3.4,0,6-2.3,6-2.3l2,3.8c0,0-3.2,3-8.4,3
		c-6.9,0-11.3-5-11.3-11c0.1-6.5,4.4-11,10.7-11c6,0,9.2,4.4,9.2,9.9C157.7,31.3,157.5,32.7,157.5,32.7z M168.4,42.7
		c-5.2,0-8.1-3.1-8.1-3.1l2.3-3.7c0,0,2.3,2.3,5.7,2.3c1.5,0,2.8-0.7,2.8-1.9c0-3.1-10.1-2.7-10.1-9.5c0-3.9,3.5-6.2,8-6.2
		c4.7,0,7,2.4,7,2.4l-2,3.8c0,0-2-1.8-5.1-1.8c-1.4,0-2.6,0.6-2.6,1.9c0,2.9,10.1,2.6,10.1,9.3C176.4,39.8,173.4,42.7,168.4,42.7z
		 M193.4,31h-6.6v11.1H181V9.9h12.5c6.1,0,10.3,4.2,10.3,10.5S199.5,31,193.4,31z M215.8,42.7c-6.4,0-11.5-4.5-11.5-11
		c0-6.4,5.2-11,11.5-11c6.4,0,11.5,4.6,11.5,11C227.3,38.2,222.2,42.7,215.8,42.7z"/>
	<path d="M215.8,25.2c-3.4,0-6.2,2.6-6.2,6.5c0,3.9,2.8,6.5,6.2,6.5c3.4,0,6.2-2.6,6.2-6.5C222,27.9,219.1,25.2,215.8,25.2z"/>
	<path d="M192.4,14.9h-5.6v11h5.5c3.4,0,5.4-2.2,5.4-5.6C197.7,17.1,195.7,14.9,192.4,14.9z"/>
</g>
</svg>
