<svg version="1.1" id="Layer_1" xmlns="http://www.w3.org/2000/svg" xmlns:xlink="http://www.w3.org/1999/xlink" x="0px" y="0px"
	 viewBox="0 0 512 512" style="enable-background:new 0 0 512 512;" xml:space="preserve">
<g>
	<g>
		<path d="M494.5,138.6L364,3c-1.9-1.9-4.4-3-7.1-3H162.5c-21.8,0-39.5,17.7-39.5,39.4v137.8H44.3c-16.3,0-29.5,13.2-29.5,29.5
			v147.7c0,16.3,13.2,29.5,29.5,29.5h78.8v88.6c0,21.7,17.7,39.4,39.5,39.4h295.2c21.8,0,39.5-17.7,39.5-39.4V145.4
			C497.2,142.8,496.2,140.4,494.5,138.6z M359.4,26.6l107.1,111.3H359.4V26.6z M44.3,364.3c-5.4,0-9.8-4.4-9.8-9.8V206.7
			c0-5.4,4.4-9.8,9.8-9.8h265.9c5.4,0,9.8,4.4,9.8,9.8v147.7c0,5.4-4.4,9.8-9.8,9.8H44.3z M477.5,472.6c0,10.8-8.9,19.7-19.8,19.7
			H162.5c-10.9,0-19.8-8.8-19.8-19.7V384h167.4c16.3,0,29.5-13.2,29.5-29.5V206.7c0-16.3-13.2-29.5-29.5-29.5H142.8V39.4
			c0-10.9,8.9-19.8,19.8-19.8h177.2v128c0,5.4,4.4,9.8,9.8,9.8h128L477.5,472.6L477.5,472.6z"/>
	</g>
</g>
<g>
	<path d="M122.7,293.3l16.8,5.3c-2.6,9.4-6.9,16.3-12.9,20.9c-6,4.6-13.6,6.8-22.8,6.8c-11.4,0-20.8-3.9-28.1-11.7
		c-7.3-7.8-11-18.4-11-32c0-14.3,3.7-25.4,11.1-33.3s17.1-11.9,29.1-11.9c10.5,0,19,3.1,25.6,9.3c3.9,3.7,6.8,8.9,8.8,15.8
		l-17.2,4.1c-1-4.5-3.1-8-6.4-10.5s-7.1-3.9-11.7-3.9c-6.4,0-11.5,2.3-15.5,6.9c-4,4.6-5.9,12-5.9,22.2c0,10.9,2,18.6,5.9,23.2
		c3.9,4.6,9,6.9,15.2,6.9c4.6,0,8.6-1.5,11.9-4.4C118.9,304.2,121.2,299.6,122.7,293.3z"/>
	<path d="M150,297l16.9-1.6c1,5.7,3.1,9.8,6.2,12.5s7.3,4,12.6,4c5.6,0,9.8-1.2,12.6-3.5c2.8-2.4,4.2-5.1,4.2-8.3
		c0-2-0.6-3.8-1.8-5.2c-1.2-1.4-3.3-2.7-6.2-3.7c-2-0.7-6.7-2-13.9-3.8c-9.3-2.3-15.8-5.1-19.6-8.5c-5.3-4.7-7.9-10.5-7.9-17.3
		c0-4.4,1.2-8.5,3.7-12.3c2.5-3.8,6.1-6.7,10.7-8.7c4.7-2,10.3-3,16.9-3c10.8,0,18.9,2.4,24.3,7.1c5.4,4.7,8.3,11,8.6,18.9
		l-17.3,0.8c-0.7-4.4-2.3-7.6-4.8-9.5c-2.4-1.9-6.1-2.9-11-2.9c-5,0-9,1-11.8,3.1c-1.8,1.3-2.8,3.1-2.8,5.3c0,2,0.9,3.8,2.6,5.2
		c2.2,1.8,7.5,3.8,15.9,5.7s14.7,4.1,18.7,6.2s7.2,5,9.5,8.7s3.4,8.3,3.4,13.7c0,4.9-1.4,9.5-4.1,13.8c-2.7,4.3-6.6,7.5-11.6,9.6
		c-5,2.1-11.2,3.1-18.7,3.1c-10.9,0-19.2-2.5-25-7.5C154.6,313.9,151.1,306.6,150,297z"/>
	<path d="M256.3,324.9L225.6,239h18.8l21.7,63.6l21-63.6h18.4l-30.8,85.9H256.3z"/>
</g>
</svg>
